<svg width="60" height="60" viewBox="0 0 60 60" fill="none" xmlns="http://www.w3.org/2000/svg">
<path d="M46.5968 14.1037C43.4591 12.6414 40.0945 11.5641 36.5765 10.947C36.5124 10.9351 36.4484 10.9649 36.4154 11.0244C35.9827 11.8061 35.5034 12.8259 35.1677 13.6275C31.3839 13.0521 27.6196 13.0521 23.9134 13.6275C23.5776 12.8081 23.0809 11.8061 22.6463 11.0244C22.6132 10.9669 22.5492 10.9371 22.4852 10.947C18.9692 11.5621 15.6045 12.6394 12.4649 14.1037C12.4377 14.1156 12.4144 14.1354 12.399 14.1612C6.01694 23.8453 4.26863 33.2913 5.12629 42.6203C5.13017 42.6659 5.15539 42.7096 5.19032 42.7373C9.40101 45.878 13.4798 47.7847 17.4828 49.0485C17.5469 49.0684 17.6148 49.0446 17.6555 48.991C18.6025 47.6776 19.4465 46.2927 20.1703 44.8364C20.213 44.7511 20.1722 44.6499 20.0849 44.6162C18.746 44.1003 17.4712 43.4714 16.2448 42.7572C16.1478 42.6996 16.1401 42.5587 16.2293 42.4913C16.4874 42.2949 16.7455 42.0905 16.9919 41.8841C17.0365 41.8465 17.0986 41.8385 17.151 41.8623C25.2076 45.5983 33.9297 45.5983 41.8912 41.8623C41.9436 41.8365 42.0058 41.8445 42.0523 41.8822C42.2988 42.0885 42.5569 42.2949 42.8169 42.4913C42.9061 42.5587 42.9003 42.6996 42.8033 42.7572C41.5769 43.4853 40.302 44.1003 38.9612 44.6142C38.8739 44.648 38.8351 44.7511 38.8778 44.8364C39.6171 46.2907 40.4612 47.6756 41.3906 48.989C41.4295 49.0446 41.4993 49.0684 41.5633 49.0485C45.5858 47.7847 49.6645 45.878 53.8752 42.7373C53.9121 42.7096 53.9354 42.6679 53.9393 42.6222C54.9657 31.837 52.22 22.4684 46.6608 14.1632C46.6472 14.1354 46.6239 14.1156 46.5968 14.1037ZM21.3734 36.9399C18.9478 36.9399 16.9492 34.6782 16.9492 31.9005C16.9492 29.1228 18.9091 26.861 21.3734 26.861C23.8571 26.861 25.8363 29.1427 25.7975 31.9005C25.7975 34.6782 23.8376 36.9399 21.3734 36.9399ZM37.731 36.9399C35.3055 36.9399 33.3069 34.6782 33.3069 31.9005C33.3069 29.1228 35.2667 26.861 37.731 26.861C40.2148 26.861 42.1939 29.1427 42.1552 31.9005C42.1552 34.6782 40.2148 36.9399 37.731 36.9399Z" fill="white"/>
</svg>
