<svg width="84" height="84" viewBox="0 0 84 84" fill="none" xmlns="http://www.w3.org/2000/svg">
<path fill-rule="evenodd" clip-rule="evenodd" d="M42 7.86343C22.6625 7.86343 7 23.5259 7 42.8634C7 58.3509 17.0187 71.4322 30.9312 76.0697C32.6812 76.3759 33.3375 75.3259 33.3375 74.4072C33.3375 73.5759 33.2938 70.8197 33.2938 67.8884C24.5 69.5072 22.225 65.7447 21.525 63.7759C21.1312 62.7697 19.425 59.6634 17.9375 58.8322C16.7125 58.1759 14.9625 56.5572 17.8938 56.5134C20.65 56.4697 22.6188 59.0509 23.275 60.1009C26.425 65.3947 31.4563 63.9072 33.4688 62.9884C33.775 60.7134 34.6937 59.1822 35.7 58.3072C27.9125 57.4322 19.775 54.4134 19.775 41.0259C19.775 37.2197 21.1313 34.0697 23.3625 31.6197C23.0125 30.7447 21.7875 27.1572 23.7125 22.3447C23.7125 22.3447 26.6438 21.4259 33.3375 25.9322C36.1375 25.1447 39.1125 24.7509 42.0875 24.7509C45.0625 24.7509 48.0375 25.1447 50.8375 25.9322C57.5313 21.3822 60.4625 22.3447 60.4625 22.3447C62.3875 27.1572 61.1625 30.7447 60.8125 31.6197C63.0438 34.0697 64.4 37.1759 64.4 41.0259C64.4 54.4572 56.2188 57.4322 48.4313 58.3072C49.7 59.4009 50.7938 61.5009 50.7938 64.7822C50.7938 69.4634 50.75 73.2259 50.75 74.4072C50.75 75.3259 51.4063 76.4197 53.1563 76.0697C60.1044 73.7241 66.142 69.2586 70.4193 63.3018C74.6966 57.345 76.9981 50.1968 77 42.8634C77 23.5259 61.3375 7.86343 42 7.86343Z" fill="#FCFCFC"/>
</svg>
