<svg width="60" height="60" viewBox="0 0 60 60" fill="none" xmlns="http://www.w3.org/2000/svg">
<path fill-rule="evenodd" clip-rule="evenodd" d="M30.1782 7.5C24.1615 7.5 23.4083 7.5255 21.0453 7.635C18.6868 7.7445 17.0755 8.1255 15.6666 8.682C14.1898 9.246 12.8503 10.131 11.7426 11.277C10.6161 12.4007 9.74424 13.7602 9.18767 15.261C8.64271 16.692 8.26612 18.33 8.15831 20.7255C8.05197 23.124 8.02539 23.8875 8.02539 30C8.02539 36.1125 8.0505 36.876 8.15831 39.276C8.26612 41.6715 8.64124 43.308 9.18915 44.739C9.74445 46.239 10.6158 47.5995 11.7441 48.7245C12.8505 49.8686 14.189 50.7542 15.6666 51.3195C17.0755 51.8745 18.6868 52.2555 21.0453 52.365C23.4083 52.4745 24.1615 52.5 30.1782 52.5C36.1949 52.5 36.9481 52.4745 39.311 52.365C41.6696 52.2555 43.2808 51.8745 44.6897 51.318C46.1666 50.754 47.5061 49.869 48.6137 48.723C49.7402 47.5993 50.6121 46.2398 51.1687 44.739C51.7151 43.308 52.0902 41.6715 52.198 39.276C52.3058 36.876 52.3309 36.111 52.3309 30C52.3309 23.889 52.3058 23.124 52.198 20.724C52.0902 18.3285 51.7151 16.692 51.1672 15.261C50.611 13.7596 49.7391 12.3995 48.6122 11.2755C47.5059 10.1313 46.1673 9.24579 44.6897 8.6805C43.2808 8.127 41.6681 7.7445 39.3095 7.635C36.9481 7.527 36.1963 7.5 30.1782 7.5ZM30.1782 11.5545C36.093 11.5545 36.7945 11.577 39.1308 11.685C41.29 11.7855 42.4626 12.15 43.2439 12.4605C44.2777 12.867 45.0161 13.356 45.7915 14.142C46.5668 14.9295 47.0468 15.6795 47.447 16.7295C47.7512 17.523 48.1116 18.714 48.2105 20.907C48.3169 23.28 48.339 23.9925 48.339 30C48.339 36.0075 48.3169 36.72 48.2105 39.093C48.1116 41.286 47.7527 42.477 47.447 43.2705C47.0925 44.2478 46.5267 45.132 45.7915 45.858C45.0768 46.605 44.2062 47.1796 43.2439 47.5395C42.4626 47.8485 41.29 48.2145 39.1308 48.315C36.7945 48.423 36.0944 48.4455 30.1782 48.4455C24.2619 48.4455 23.5619 48.423 21.2255 48.315C19.0663 48.2145 17.8937 47.85 17.1125 47.5395C16.1502 47.1794 15.2797 46.6048 14.5649 45.858C13.8297 45.1319 13.264 44.2478 12.9093 43.2705C12.6051 42.477 12.2448 41.286 12.1458 39.093C12.0395 36.72 12.0173 36.0075 12.0173 30C12.0173 23.9925 12.0395 23.28 12.1458 20.907C12.2448 18.714 12.6036 17.523 12.9093 16.7295C13.3096 15.6795 13.791 14.9295 14.5649 14.142C15.2796 13.3951 16.1502 12.8205 17.1125 12.4605C17.8937 12.1515 19.0663 11.7855 21.2255 11.685C23.5619 11.577 24.2634 11.5545 30.1782 11.5545Z" fill="white"/>
<path fill-rule="evenodd" clip-rule="evenodd" d="M30.1785 37.5075C29.2078 37.5075 28.2467 37.3133 27.3499 36.936C26.4531 36.5587 25.6382 36.0057 24.9518 35.3086C24.2655 34.6115 23.721 33.7838 23.3495 32.873C22.9781 31.9621 22.7869 30.9859 22.7869 30C22.7869 29.0141 22.9781 28.0378 23.3495 27.127C23.721 26.2161 24.2655 25.3885 24.9518 24.6914C25.6382 23.9943 26.4531 23.4413 27.3499 23.064C28.2467 22.6867 29.2078 22.4925 30.1785 22.4925C32.1389 22.4925 34.019 23.2835 35.4052 24.6914C36.7914 26.0993 37.5702 28.0089 37.5702 30C37.5702 31.9911 36.7914 33.9007 35.4052 35.3086C34.019 36.7165 32.1389 37.5075 30.1785 37.5075ZM30.1785 18.435C27.1586 18.435 24.2624 19.6534 22.127 21.8223C19.9916 23.9912 18.792 26.9328 18.792 30C18.792 33.0672 19.9916 36.0088 22.127 38.1777C24.2624 40.3465 27.1586 41.565 30.1785 41.565C33.1984 41.565 36.0946 40.3465 38.23 38.1777C40.3654 36.0088 41.565 33.0672 41.565 30C41.565 26.9328 40.3654 23.9912 38.23 21.8223C36.0946 19.6534 33.1984 18.435 30.1785 18.435ZM44.8776 18.225C44.8776 18.95 44.594 19.6454 44.0893 20.158C43.5845 20.6707 42.8999 20.9587 42.1861 20.9587C41.4722 20.9587 40.7876 20.6707 40.2828 20.158C39.7781 19.6454 39.4945 18.95 39.4945 18.225C39.4945 17.5 39.7781 16.8046 40.2828 16.2919C40.7876 15.7793 41.4722 15.4912 42.1861 15.4912C42.8999 15.4912 43.5845 15.7793 44.0893 16.2919C44.594 16.8046 44.8776 17.5 44.8776 18.225Z" fill="white"/>
</svg>
