<svg width="60" height="60" viewBox="0 0 60 60" fill="none" xmlns="http://www.w3.org/2000/svg">
<path fill-rule="evenodd" clip-rule="evenodd" d="M54.4354 30C54.4354 43.8071 43.4153 55 29.8212 55C16.2272 55 5.20703 43.8071 5.20703 30C5.20703 16.1929 16.2272 5 29.8212 5C43.4153 5 54.4354 16.1929 54.4354 30ZM30.7032 23.4561C28.3091 24.4675 23.5243 26.5609 16.3488 29.7361C15.1836 30.2067 14.5732 30.6672 14.5176 31.1173C14.4237 31.8782 15.3618 32.1777 16.6392 32.5857C16.813 32.6412 16.993 32.6987 17.1776 32.7596C18.4343 33.1746 20.1249 33.66 21.0037 33.6793C21.8009 33.6968 22.6907 33.363 23.673 32.6778C30.3774 28.0813 33.8382 25.758 34.0555 25.7079C34.2087 25.6725 34.4212 25.6281 34.5651 25.758C34.709 25.888 34.6949 26.134 34.6796 26.2C34.5867 26.6024 30.9045 30.0794 28.9989 31.8787C28.4049 32.4397 27.9835 32.8376 27.8973 32.9284C27.7044 33.132 27.5077 33.3246 27.3187 33.5096C26.1511 34.6528 25.2756 35.5101 27.3672 36.91C28.3723 37.5828 29.1766 38.1391 29.979 38.6941C30.8553 39.3002 31.7294 39.9048 32.8602 40.6577C33.1484 40.8495 33.4235 41.0488 33.6915 41.2428C34.7113 41.9812 35.6276 42.6447 36.7595 42.5389C37.4172 42.4774 38.0966 41.8492 38.4416 39.9758C39.2571 35.5483 40.8599 25.9551 41.2303 22.0021C41.2628 21.6557 41.2219 21.2125 41.1891 21.0179C41.1564 20.8233 41.0878 20.5461 40.8388 20.3409C40.5439 20.0978 40.0886 20.0466 39.885 20.0502C38.9592 20.0668 37.5389 20.5684 30.7032 23.4561Z" fill="white"/>
</svg>
