<svg width="60" height="60" viewBox="0 0 60 60" fill="none" xmlns="http://www.w3.org/2000/svg">
<path d="M30.5552 8.2258C18.3955 8.2258 8.49966 17.9066 8.49537 29.804C8.49251 33.6087 9.51011 37.3219 11.4395 40.5924L8.30957 51.7742L20.0048 48.7737C23.258 50.5021 26.8753 51.4037 30.5467 51.4011H30.5552C42.715 51.4011 52.6108 41.7189 52.6151 29.8214C52.618 24.0585 50.3255 18.6339 46.1594 14.5563C41.9947 10.4773 36.4565 8.22725 30.5552 8.2258ZM30.5552 47.7561H30.5481C27.2581 47.7561 24.0309 46.891 21.2153 45.2564L20.5436 44.8674L13.6062 46.6471L15.4585 40.0277L15.0226 39.3498C13.1916 36.5136 12.2169 33.1956 12.2185 29.804C12.2228 19.9142 20.4493 11.8708 30.5624 11.8708C35.4589 11.8723 40.0624 13.7405 43.5253 17.13C46.9883 20.5195 48.8935 25.0268 48.8906 29.82C48.8863 39.7098 40.6612 47.7561 30.5538 47.7561H30.5552ZM40.6126 34.3214C40.0609 34.0529 37.3511 32.7479 36.8452 32.5664C36.3407 32.3879 35.9734 32.295 35.6061 32.835C35.2402 33.375 34.1826 34.59 33.8624 34.9485C33.5394 35.3085 33.2179 35.3521 32.6662 35.0835C32.1145 34.8135 30.338 34.2445 28.2342 32.4068C26.5949 30.9784 25.4887 29.2132 25.1671 28.6718C24.8455 28.1332 25.1328 27.8414 25.4087 27.5729C25.6559 27.3334 25.9603 26.9443 26.2347 26.6293C26.5091 26.3144 26.6006 26.0893 26.7864 25.7293C26.9694 25.3708 26.8779 25.0543 26.7393 24.7858C26.6006 24.5143 25.5001 21.8608 25.0385 20.7823C24.5926 19.7313 24.1381 19.8721 23.7994 19.8547C23.4778 19.8402 23.1119 19.8358 22.7417 19.8358C22.3773 19.8358 21.7785 19.9708 21.2725 20.5108C20.768 21.0508 19.3431 22.3543 19.3431 25.0079C19.3431 27.6629 21.3183 30.2264 21.5941 30.5864C21.8699 30.945 25.4815 36.3929 31.0112 38.73C32.326 39.2831 33.3522 39.6155 34.154 39.8652C35.4746 40.276 36.6766 40.2164 37.6256 40.0785C38.6832 39.9232 40.887 38.775 41.3444 37.5164C41.8046 36.2579 41.8046 35.1779 41.6674 34.9529C41.533 34.7279 41.1643 34.5929 40.6126 34.3214Z" fill="white"/>
</svg>
